<mxfile host="65bd71144e">
    <diagram id="5-S4JDWpLX17IXL7zq8z" name="架构图">
        <mxGraphModel dx="1386" dy="784" grid="1" gridSize="10" guides="1" tooltips="1" connect="1" arrows="1" fold="1" page="1" pageScale="1" pageWidth="850" pageHeight="1100" math="0" shadow="0">
            <root>
                <mxCell id="0"/>
                <mxCell id="1" parent="0"/>
                <mxCell id="2" value="" style="sketch=0;outlineConnect=0;fontColor=#232F3E;gradientColor=none;fillColor=#D45B07;strokeColor=none;dashed=0;verticalLabelPosition=bottom;verticalAlign=top;align=center;html=1;fontSize=12;fontStyle=0;aspect=fixed;pointerEvents=1;shape=mxgraph.aws4.container_registry_image;" parent="1" vertex="1">
                    <mxGeometry x="30" y="320" width="70" height="70" as="geometry"/>
                </mxCell>
                <mxCell id="5" value="&lt;font style=&quot;font-size: 24px;&quot;&gt;&lt;i&gt;Teacher model&lt;/i&gt;&lt;/font&gt;" style="rounded=1;whiteSpace=wrap;html=1;fontSize=20;fillColor=#dae8fc;strokeColor=#6c8ebf;" parent="1" vertex="1">
                    <mxGeometry x="200" y="170" width="240" height="80" as="geometry"/>
                </mxCell>
                <mxCell id="6" value="&lt;i&gt;Sdutent model&lt;/i&gt;" style="rounded=1;whiteSpace=wrap;html=1;fontSize=20;fillColor=#d5e8d4;strokeColor=#82b366;" parent="1" vertex="1">
                    <mxGeometry x="235" y="460" width="170" height="60" as="geometry"/>
                </mxCell>
                <mxCell id="7" value="" style="endArrow=classic;html=1;fontSize=24;fontColor=#000000;strokeWidth=3;entryX=0;entryY=0.5;entryDx=0;entryDy=0;" parent="1" target="5" edge="1">
                    <mxGeometry width="50" height="50" relative="1" as="geometry">
                        <mxPoint x="100" y="354.5" as="sourcePoint"/>
                        <mxPoint x="190" y="354.5" as="targetPoint"/>
                        <Array as="points">
                            <mxPoint x="160" y="355"/>
                            <mxPoint x="160" y="210"/>
                        </Array>
                    </mxGeometry>
                </mxCell>
                <mxCell id="8" value="" style="endArrow=classic;html=1;strokeWidth=3;fontSize=24;fontColor=#000000;entryX=0;entryY=0.5;entryDx=0;entryDy=0;" parent="1" target="6" edge="1">
                    <mxGeometry width="50" height="50" relative="1" as="geometry">
                        <mxPoint x="100" y="355" as="sourcePoint"/>
                        <mxPoint x="230" y="420" as="targetPoint"/>
                        <Array as="points">
                            <mxPoint x="160" y="355"/>
                            <mxPoint x="160" y="490"/>
                        </Array>
                    </mxGeometry>
                </mxCell>
                <mxCell id="9" value="&lt;i&gt;Softmax(T=t)&lt;/i&gt;" style="rounded=1;whiteSpace=wrap;html=1;fontSize=24;fillColor=#f5f5f5;gradientColor=#b3b3b3;strokeColor=#666666;" parent="1" vertex="1">
                    <mxGeometry x="560" y="180" width="180" height="60" as="geometry"/>
                </mxCell>
                <mxCell id="10" value="&lt;i&gt;Softmax(T=t)&lt;/i&gt;" style="rounded=1;whiteSpace=wrap;html=1;fontSize=24;fillColor=#f5f5f5;gradientColor=#b3b3b3;strokeColor=#666666;" parent="1" vertex="1">
                    <mxGeometry x="560" y="370" width="180" height="60" as="geometry"/>
                </mxCell>
                <mxCell id="11" value="&lt;i&gt;Softmax(T=1)&lt;/i&gt;" style="rounded=1;whiteSpace=wrap;html=1;fontSize=24;fillColor=#f5f5f5;gradientColor=#b3b3b3;strokeColor=#666666;" parent="1" vertex="1">
                    <mxGeometry x="560" y="570" width="180" height="60" as="geometry"/>
                </mxCell>
                <mxCell id="12" value="" style="endArrow=classic;html=1;strokeWidth=3;fontSize=24;fontColor=#000000;entryX=0;entryY=0.5;entryDx=0;entryDy=0;" parent="1" target="9" edge="1">
                    <mxGeometry width="50" height="50" relative="1" as="geometry">
                        <mxPoint x="440" y="210" as="sourcePoint"/>
                        <mxPoint x="490" y="160" as="targetPoint"/>
                    </mxGeometry>
                </mxCell>
                <mxCell id="13" value="" style="endArrow=classic;html=1;strokeWidth=3;fontSize=24;fontColor=#000000;entryX=0;entryY=0.5;entryDx=0;entryDy=0;" parent="1" target="10" edge="1">
                    <mxGeometry width="50" height="50" relative="1" as="geometry">
                        <mxPoint x="405" y="489.5" as="sourcePoint"/>
                        <mxPoint x="525" y="489.5" as="targetPoint"/>
                        <Array as="points">
                            <mxPoint x="480" y="490"/>
                            <mxPoint x="480" y="400"/>
                        </Array>
                    </mxGeometry>
                </mxCell>
                <mxCell id="14" value="" style="endArrow=classic;html=1;strokeWidth=3;fontSize=24;fontColor=#000000;entryX=0;entryY=0.5;entryDx=0;entryDy=0;" parent="1" target="11" edge="1">
                    <mxGeometry width="50" height="50" relative="1" as="geometry">
                        <mxPoint x="405" y="489.5" as="sourcePoint"/>
                        <mxPoint x="525" y="489.5" as="targetPoint"/>
                        <Array as="points">
                            <mxPoint x="480" y="490"/>
                            <mxPoint x="480" y="600"/>
                        </Array>
                    </mxGeometry>
                </mxCell>
                <mxCell id="15" value="&lt;i&gt;soft labels&lt;/i&gt;" style="rounded=1;whiteSpace=wrap;html=1;fontSize=24;fillColor=#ffcd28;gradientColor=#ffa500;strokeColor=#d79b00;" parent="1" vertex="1">
                    <mxGeometry x="850" y="180" width="130" height="60" as="geometry"/>
                </mxCell>
                <mxCell id="16" value="&lt;i&gt;soft predictions&lt;/i&gt;" style="rounded=1;whiteSpace=wrap;html=1;fontSize=24;fillColor=#ffcd28;gradientColor=#ffa500;strokeColor=#d79b00;" parent="1" vertex="1">
                    <mxGeometry x="840" y="370" width="150" height="60" as="geometry"/>
                </mxCell>
                <mxCell id="18" value="&lt;i&gt;hard predictions&lt;/i&gt;" style="rounded=1;whiteSpace=wrap;html=1;fontSize=24;fillColor=#ffcd28;gradientColor=#ffa500;strokeColor=#d79b00;" parent="1" vertex="1">
                    <mxGeometry x="840" y="570" width="150" height="60" as="geometry"/>
                </mxCell>
                <mxCell id="19" value="&lt;b style=&quot;&quot;&gt;&lt;i&gt;ground &lt;br&gt;truth&lt;/i&gt;&lt;/b&gt;" style="shape=parallelogram;perimeter=parallelogramPerimeter;whiteSpace=wrap;html=1;fixedSize=1;fontSize=24;fillColor=#f8cecc;gradientColor=#ea6b66;strokeColor=#b85450;" parent="1" vertex="1">
                    <mxGeometry x="837.5" y="740" width="155" height="70" as="geometry"/>
                </mxCell>
                <mxCell id="20" value="" style="endArrow=classic;html=1;strokeWidth=3;fontSize=24;fontColor=#000000;" parent="1" edge="1">
                    <mxGeometry width="50" height="50" relative="1" as="geometry">
                        <mxPoint x="740" y="209.5" as="sourcePoint"/>
                        <mxPoint x="850" y="210" as="targetPoint"/>
                    </mxGeometry>
                </mxCell>
                <mxCell id="21" value="" style="endArrow=classic;html=1;strokeWidth=3;fontSize=24;fontColor=#000000;" parent="1" edge="1">
                    <mxGeometry width="50" height="50" relative="1" as="geometry">
                        <mxPoint x="740" y="399.5" as="sourcePoint"/>
                        <mxPoint x="840" y="400" as="targetPoint"/>
                    </mxGeometry>
                </mxCell>
                <mxCell id="22" value="" style="endArrow=classic;html=1;strokeWidth=3;fontSize=24;fontColor=#000000;" parent="1" edge="1">
                    <mxGeometry width="50" height="50" relative="1" as="geometry">
                        <mxPoint x="740" y="599.5" as="sourcePoint"/>
                        <mxPoint x="840" y="600" as="targetPoint"/>
                    </mxGeometry>
                </mxCell>
                <mxCell id="23" value="distillation loss" style="rounded=1;whiteSpace=wrap;html=1;fontSize=24;fillColor=#1ba1e2;strokeColor=#006EAF;fontColor=#ffffff;" parent="1" vertex="1">
                    <mxGeometry x="1080" y="260" width="230" height="60" as="geometry"/>
                </mxCell>
                <mxCell id="24" value="student loss" style="rounded=1;whiteSpace=wrap;html=1;fontSize=24;fillColor=#1ba1e2;strokeColor=#006EAF;fontColor=#ffffff;" parent="1" vertex="1">
                    <mxGeometry x="1080" y="660" width="230" height="60" as="geometry"/>
                </mxCell>
                <mxCell id="25" value="" style="endArrow=classic;html=1;strokeWidth=3;fontSize=24;fontColor=#000000;entryX=0.53;entryY=-0.033;entryDx=0;entryDy=0;entryPerimeter=0;" parent="1" target="23" edge="1">
                    <mxGeometry width="50" height="50" relative="1" as="geometry">
                        <mxPoint x="980" y="209.5" as="sourcePoint"/>
                        <mxPoint x="1180" y="209.5" as="targetPoint"/>
                        <Array as="points">
                            <mxPoint x="1202" y="210"/>
                        </Array>
                    </mxGeometry>
                </mxCell>
                <mxCell id="26" value="" style="endArrow=classic;html=1;strokeWidth=3;fontSize=24;fontColor=#000000;entryX=0.53;entryY=1.033;entryDx=0;entryDy=0;entryPerimeter=0;" parent="1" target="23" edge="1">
                    <mxGeometry width="50" height="50" relative="1" as="geometry">
                        <mxPoint x="990" y="400" as="sourcePoint"/>
                        <mxPoint x="1040" y="350" as="targetPoint"/>
                        <Array as="points">
                            <mxPoint x="1202" y="400"/>
                        </Array>
                    </mxGeometry>
                </mxCell>
                <mxCell id="27" value="&lt;i&gt;&lt;font color=&quot;#ff9933&quot;&gt;L&lt;sub&gt;soft&lt;/sub&gt;&lt;/font&gt;&lt;/i&gt;" style="text;html=1;align=center;verticalAlign=middle;resizable=0;points=[];autosize=1;strokeColor=none;fillColor=none;fontSize=24;fontColor=#000000;" parent="1" vertex="1">
                    <mxGeometry x="1010" y="265" width="70" height="50" as="geometry"/>
                </mxCell>
                <mxCell id="28" value="&lt;i&gt;&lt;font color=&quot;#ff9933&quot;&gt;L&lt;span style=&quot;font-size: 20px;&quot;&gt;&lt;sub&gt;hard&lt;/sub&gt;&lt;/span&gt;&lt;/font&gt;&lt;/i&gt;" style="text;html=1;align=center;verticalAlign=middle;resizable=0;points=[];autosize=1;strokeColor=none;fillColor=none;fontSize=24;fontColor=#000000;" parent="1" vertex="1">
                    <mxGeometry x="1010" y="670" width="70" height="50" as="geometry"/>
                </mxCell>
                <mxCell id="29" value="" style="endArrow=classic;html=1;strokeWidth=3;fontSize=24;fontColor=#000000;" parent="1" edge="1">
                    <mxGeometry width="50" height="50" relative="1" as="geometry">
                        <mxPoint x="990" y="600" as="sourcePoint"/>
                        <mxPoint x="1200" y="660" as="targetPoint"/>
                        <Array as="points">
                            <mxPoint x="1200" y="600"/>
                        </Array>
                    </mxGeometry>
                </mxCell>
                <mxCell id="30" value="" style="endArrow=classic;html=1;strokeWidth=3;fontSize=24;fontColor=#000000;" parent="1" edge="1">
                    <mxGeometry width="50" height="50" relative="1" as="geometry">
                        <mxPoint x="980" y="780" as="sourcePoint"/>
                        <mxPoint x="1200" y="720" as="targetPoint"/>
                        <Array as="points">
                            <mxPoint x="1200" y="780"/>
                        </Array>
                    </mxGeometry>
                </mxCell>
            </root>
        </mxGraphModel>
    </diagram>
</mxfile>